<?xml version="1.0" encoding="UTF-8"?>
<svg id="Layer_1" data-name="Layer 1" xmlns="http://www.w3.org/2000/svg" viewBox="0 0 848 159.73">
  <defs>
    <style>
      .cls-1 {
        fill: #fff;
      }
    </style>
  </defs>
  <path class="cls-1" d="m522.26,124.83c-7.24,0-13.06-2.02-17.46-6.05-4.4-4.03-6.6-9.76-6.6-17.18v-32.99h-18.97v-10.31h18.97v-25.98h11.96v25.98h30.38v10.31h-30.38v32.99c0,4.4,1.21,7.63,3.64,9.69,2.43,2.06,5.15,3.09,8.18,3.09,3.48,0,6.37-1.19,8.66-3.57,2.29-2.38,3.57-5.5,3.85-9.35l11,2.47c-.73,6.05-3.14,11.04-7.22,14.98-4.08,3.94-9.42,5.91-16.01,5.91m-116.42-1.37v-32.99c0-6.87,1.81-12.44,5.43-16.7,3.62-4.26,8.22-6.39,13.82-6.39s9.67,1.67,12.78,5.02c3.11,3.35,4.67,8.18,4.67,14.5v36.56h11.96v-38.49c0-8.52-2.29-15.33-6.87-20.41-4.58-5.09-10.81-7.63-18.69-7.63-4.95,0-9.48,1.17-13.61,3.5-4.12,2.34-7.29,5.61-9.48,9.83v-11.96h-11.82v65.15h11.82Zm-53.06-39.31c.09-.46.14-1.1.14-1.92,0-4.49-1.81-8.09-5.43-10.79-3.62-2.7-8.04-4.06-13.26-4.06s-9.99,1.49-13.75,4.47c-3.76,2.98-6,7.08-6.73,12.3h39.04Zm-16.91,40.69c-6.42,0-12.21-1.4-17.39-4.19-5.18-2.8-9.28-6.78-12.3-11.96-3.02-5.18-4.54-11.25-4.54-18.21,0-6.32,1.37-12.05,4.12-17.18,2.75-5.13,6.6-9.14,11.55-12.03,4.95-2.89,10.54-4.33,16.77-4.33,5.77,0,10.97,1.12,15.6,3.37,4.63,2.25,8.27,5.48,10.93,9.69,2.66,4.22,3.99,9.12,3.99,14.71,0,2.93-.28,5.64-.83,8.11h-50.03c.09,4.49,1.21,8.36,3.37,11.61,2.15,3.25,4.9,5.73,8.25,7.42,3.34,1.7,6.85,2.54,10.52,2.54,10.9,0,17.68-4.86,20.34-14.57l10.31,3.99c-2.2,6.51-5.93,11.64-11.2,15.39-5.27,3.76-11.75,5.64-19.45,5.64m-97.59-1.37h14.43l26.12-65.15h-12.65l-20.62,53.61-20.76-53.61h-12.51l25.98,65.15Zm-205.77,0h46.74v-10.72h-17.6v-25.98c0-6.05,1.4-10.79,4.19-14.23,2.79-3.44,6.44-5.15,10.93-5.15,4.12,0,7.44,1.26,9.97,3.78,2.52,2.52,3.78,6.03,3.78,10.51,0,2.02-.14,3.94-.41,5.77h11.96c.36-2.38.55-4.58.55-6.6,0-4.49-.96-8.57-2.89-12.23-1.92-3.66-4.63-6.53-8.11-8.59-3.48-2.06-7.38-3.09-11.68-3.09s-8.18,1.03-11.34,3.09c-3.16,2.06-5.48,4.65-6.94,7.77v-9.48h-29.14v10.72h17.32v43.71h-17.32v10.72Zm119.45,3.95l12.78-2.75c-.73-6.96-3.18-13.22-7.35-18.76-4.17-5.54-9-9.14-14.5-10.79h40.75v-10.72h-40.75c5.5-1.65,10.33-5.27,14.5-10.86,4.17-5.59,6.62-11.82,7.35-18.69l-12.78-2.89c-.46,9.71-3.37,17.37-8.73,22.95-5.36,5.59-12.35,8.75-20.96,9.49v10.72c8.61.73,15.6,3.87,20.96,9.42,5.36,5.55,8.27,13.17,8.73,22.89m575.7-12.72c1.91,0,3.13-.9,3.13-2.65s-1.22-2.62-3.13-2.62h-4.23v5.27h4.23Zm-6.53-7.38h6.88c3.29,0,5.2,1.89,5.2,4.37s-1.66,3.89-3.84,4.3c2.12.37,2.94,1.36,3.36,3.38l.78,4.05h-2.51l-.67-3.84c-.32-2.05-1.38-2.81-3.57-2.81h-3.34v6.65h-2.3v-16.1Zm-7.13,0h2.3v16.1h-2.3v-16.1Zm-7.73,9.75l-1.56-4.39c-.44-1.31-.85-2.46-1.22-3.45l-.23.58-.99,2.87-1.59,4.39h5.59Zm.74,2.09h-7.08l-1.52,4.26h-2.48l6.05-16.1h3.17l5.93,16.1h-2.58l-1.49-4.26Zm-32.71-11.85h3.08l8.62,12.19v-12.19h2.3v16.1h-2.28l-9.43-13.36v13.36h-2.3v-16.1Zm-7.13,0h2.3v16.1h-2.3v-16.1Zm-15.04,0h11.39v2.12h-9.08v4.6h6.74v2.09h-6.74v5.17h9.08v2.12h-11.39v-16.1Zm-13.73,0h2.3v13.94h8.67v2.16h-10.97v-16.1Zm-9.04,7.82c2.23,0,3.38-1.24,3.38-2.92s-1.15-2.78-3.38-2.78h-3.8v5.7h3.8Zm-6.1-7.82h6.53c3.36,0,5.38,2,5.38,4.9s-2.02,4.92-5.4,4.92h-4.21v6.28h-2.3v-16.1Zm-20.91,0h11.39v2.12h-9.08v4.6h6.74v2.09h-6.74v5.17h9.08v2.12h-11.39v-16.1Zm-11.96,13.98c3.89,0,5.82-2,5.82-5.98,0-3.59-1.91-5.89-5.66-5.89h-3.04v11.87h2.88Zm-5.17-13.98h5.66c4.58,0,7.75,3.2,7.75,7.98,0,5.06-3.08,8.12-7.89,8.12h-5.52v-16.1Zm169.58-22.49h-5.68v-2.12h13.87v2.12h-5.89v13.98h-2.3v-13.98Zm-22.45-2.12h3.08l8.62,12.19v-12.19h2.3v16.1h-2.28l-9.43-13.36v13.36h-2.3v-16.1Zm-15.04,0h11.39v2.12h-9.09v4.6h6.74v2.09h-6.74v5.17h9.09v2.12h-11.39v-16.1Zm-21.99,0h3.75l3.7,9.22,1.22,3.04,1.22-3.04,3.61-9.22h3.66v16.1h-2.28v-13.75l-5.45,13.75h-1.63l-5.5-13.75v13.75h-2.3v-16.1Zm-15.04,0h11.39v2.12h-9.08v4.6h6.74v2.09h-6.74v5.17h9.08v2.12h-11.39v-16.1Zm-9.04,7.82c2.23,0,3.38-1.24,3.38-2.92s-1.15-2.78-3.38-2.78h-3.79v5.7h3.79Zm-6.09-7.82h6.53c3.36,0,5.38,2,5.38,4.9s-2.02,4.92-5.41,4.92h-4.21v6.28h-2.3v-16.1Zm-7.13,0h2.3v16.1h-2.3v-16.1Zm-17.18,0h2.3v9.55c0,3.01,1.31,4.74,3.98,4.74s3.98-1.77,3.98-4.74v-9.55h2.3v9.87c0,4.16-2.23,6.55-6.28,6.55s-6.28-2.14-6.28-6.55v-9.87Zm-8.55,12.56c-1.24-1.54-2.12-2.51-3.77-2.58-.07,0-.21,0-.37.02v-2.19c.21-.02.44-.05.74-.05,1.03,0,2,.39,2.9,1.17.67.58,1.31,1.33,2.14,2.42.48-.99.71-2.09.71-3.31,0-3.59-2.14-6.28-5.61-6.28s-5.61,2.69-5.61,6.28,2.12,6.28,5.61,6.28c1.45,0,2.69-.48,3.63-1.31l-.37-.46Zm-11.34-4.51c-.07-4.92,3.54-8.44,8.1-8.37,4.58-.07,8.1,3.45,8.03,8.37,0,2-.53,3.75-1.52,5.15.83.71,1.56,1.1,2.65,1.1v2.12c-1.75,0-2.9-.6-4.07-1.7-1.38,1.1-3.15,1.7-5.08,1.7-4.55.07-8.16-3.45-8.1-8.37m-6.79-12.93h3.15l-2.85,3.27h-1.54l1.24-3.27Zm-6.16,4.88h11.39v2.12h-9.09v4.6h6.74v2.09h-6.74v5.17h9.09v2.12h-11.39v-16.1Zm-4.88,2.83h-1.49v-2.85h2.78v2.85l-1.7,3.06h-1.29l1.7-3.06Zm-12.72,11.16c3.89,0,5.82-2,5.82-5.98,0-3.59-1.91-5.89-5.66-5.89h-3.04v11.87h2.88Zm-5.17-13.98h5.66c4.58,0,7.75,3.2,7.75,7.98,0,5.06-3.08,8.12-7.89,8.12h-5.52v-16.1Zm219.46-24.61h11.39v2.12h-9.08v4.6h6.74v2.09h-6.74v5.17h9.08v2.12h-11.39v-16.1Zm-13.73,0h2.3v13.94h8.67v2.16h-10.97v-16.1Zm-9.41,13.98c1.96,0,3.2-1.01,3.2-2.62s-1.2-2.58-3.2-2.58h-4.67v5.2h4.67Zm-.18-7.27c1.75,0,2.9-.92,2.9-2.39s-1.08-2.21-2.9-2.21h-4.48v4.6h4.48Zm-6.79-6.72h7.04c3.36,0,5.04,1.59,5.04,3.96,0,2.09-1.45,3.38-3.01,3.75,1.82.37,3.54,1.73,3.54,3.96,0,2.99-2.32,4.44-5.31,4.44h-7.29v-16.1Zm-7.73,9.75l-1.56-4.39c-.44-1.31-.85-2.46-1.22-3.45l-.23.57-.99,2.88-1.59,4.39h5.59Zm.74,2.09h-7.08l-1.52,4.25h-2.48l6.05-16.1h3.17l5.93,16.1h-2.58l-1.49-4.25Zm-18.7-4.46c1.91,0,3.13-.9,3.13-2.65s-1.22-2.62-3.13-2.62h-4.23v5.27h4.23Zm-6.53-7.38h6.88c3.29,0,5.2,1.89,5.2,4.37s-1.66,3.89-3.84,4.3c2.12.37,2.94,1.36,3.36,3.38l.78,4.05h-2.51l-.67-3.84c-.32-2.05-1.38-2.81-3.57-2.81h-3.34v6.65h-2.3v-16.1Zm-17.18,0h2.3v9.55c0,3.01,1.31,4.74,3.98,4.74s3.98-1.77,3.98-4.74v-9.55h2.3v9.87c0,4.16-2.23,6.56-6.28,6.56s-6.28-2.14-6.28-6.56v-9.87Zm-11.73,13.98c3.89,0,5.82-2,5.82-5.98,0-3.59-1.91-5.89-5.66-5.89h-3.04v11.87h2.88Zm-5.18-13.98h5.66c4.58,0,7.75,3.2,7.75,7.98,0,5.06-3.08,8.12-7.89,8.12h-5.52v-16.1Zm-20.79,0h11.39v2.12h-9.09v4.6h6.74v2.09h-6.74v5.17h9.09v2.12h-11.39v-16.1Zm-19.3,8.03c-.09-4.76,3.75-8.42,8.07-8.35,3.89,0,6.37,2.23,7.24,4.83l-2.35.94c-.9-2.41-2.55-3.63-4.97-3.63-2.9,0-5.54,2.28-5.54,6.21s2.23,6.3,5.47,6.3c2.97,0,4.83-2.02,4.97-4.05h-5.57v-2.12h7.93v7.93h-2.23v-2.83c-.39.83-1.03,1.56-1.91,2.21-.85.62-2.02.94-3.52.94-4.62,0-7.61-3.27-7.61-8.4m-17.71-8.03h3.08l8.62,12.19v-12.19h2.3v16.1h-2.28l-9.43-13.36v13.36h-2.3v-16.1Zm-7.73,9.75l-1.56-4.39c-.44-1.31-.85-2.46-1.22-3.45l-.23.57-.99,2.88-1.59,4.39h5.59Zm.74,2.09h-7.08l-1.52,4.25h-2.48l6.05-16.1h3.17l5.93,16.1h-2.58l-1.49-4.25Zm-27-11.85h2.3v6.72h8.44v-6.72h2.3v16.1h-2.3v-7.27h-8.44v7.27h-2.3v-16.1Zm-18.31,7.91c-.07-4.62,3.31-8.33,7.89-8.23,3.93,0,6.37,2.35,7.06,4.76l-2.3.83c-.3-.94-.83-1.75-1.59-2.44-.74-.71-1.79-1.06-3.17-1.06-3.24,0-5.43,2.32-5.43,6.12s2.18,6.42,5.43,6.42c2.78,0,4.12-1.43,4.85-3.63l2.23.85c-.78,2.76-3.24,4.9-7.08,4.9-4.9.07-7.96-3.77-7.89-8.51m-6.79-12.79h3.15l-2.85,3.27h-1.54l1.24-3.27Zm-6.16,4.88h11.38v2.12h-9.08v4.6h6.74v2.09h-6.74v5.17h9.08v2.12h-11.38v-16.1Z"/>
</svg>