<?xml version="1.0" encoding="UTF-8"?>
<svg id="Layer_1" data-name="Layer 1" xmlns="http://www.w3.org/2000/svg" viewBox="0 0 578.01 159.73">
  <path d="m522.26,124.83c-7.24,0-13.06-2.02-17.46-6.05-4.4-4.03-6.6-9.76-6.6-17.18v-32.99h-18.97v-10.31h18.97v-25.98h11.96v25.98h30.38v10.31h-30.38v32.99c0,4.4,1.21,7.63,3.64,9.69,2.43,2.06,5.15,3.09,8.18,3.09,3.48,0,6.37-1.19,8.66-3.57,2.29-2.38,3.57-5.5,3.85-9.35l11,2.47c-.73,6.05-3.14,11.04-7.22,14.98-4.08,3.94-9.42,5.91-16.01,5.91m-116.42-1.37v-32.99c0-6.87,1.81-12.44,5.43-16.7,3.62-4.26,8.22-6.39,13.82-6.39s9.67,1.67,12.78,5.02c3.11,3.35,4.67,8.18,4.67,14.5v36.56h11.96v-38.49c0-8.52-2.29-15.33-6.87-20.41-4.58-5.09-10.81-7.63-18.69-7.63-4.95,0-9.48,1.17-13.61,3.5-4.12,2.34-7.29,5.61-9.48,9.83v-11.96h-11.82v65.15h11.82Zm-53.06-39.31c.09-.46.14-1.1.14-1.92,0-4.49-1.81-8.09-5.43-10.79-3.62-2.7-8.04-4.06-13.26-4.06s-9.99,1.49-13.75,4.47c-3.76,2.98-6,7.08-6.73,12.3h39.04Zm-16.91,40.69c-6.42,0-12.21-1.4-17.39-4.19-5.18-2.8-9.28-6.78-12.3-11.96-3.02-5.18-4.54-11.25-4.54-18.21,0-6.32,1.37-12.05,4.12-17.18,2.75-5.13,6.6-9.14,11.55-12.03,4.95-2.89,10.54-4.33,16.77-4.33,5.77,0,10.97,1.12,15.6,3.37,4.63,2.25,8.27,5.48,10.93,9.69,2.66,4.22,3.99,9.12,3.99,14.71,0,2.93-.28,5.64-.83,8.11h-50.03c.09,4.49,1.21,8.36,3.37,11.61,2.15,3.25,4.9,5.73,8.25,7.42,3.34,1.7,6.85,2.54,10.52,2.54,10.9,0,17.68-4.86,20.34-14.57l10.31,3.99c-2.2,6.51-5.93,11.64-11.2,15.39-5.27,3.76-11.75,5.64-19.45,5.64m-97.59-1.37h14.43l26.12-65.15h-12.65l-20.62,53.61-20.76-53.61h-12.51l25.98,65.15Zm-205.77,0h46.74v-10.72h-17.6v-25.98c0-6.05,1.4-10.79,4.19-14.23,2.79-3.44,6.44-5.15,10.93-5.15,4.12,0,7.44,1.26,9.97,3.78,2.52,2.52,3.78,6.03,3.78,10.51,0,2.02-.14,3.94-.41,5.77h11.96c.36-2.38.55-4.58.55-6.6,0-4.49-.96-8.57-2.89-12.23-1.92-3.66-4.63-6.53-8.11-8.59-3.48-2.06-7.38-3.09-11.68-3.09s-8.18,1.03-11.34,3.09c-3.16,2.06-5.48,4.65-6.94,7.77v-9.48h-29.14v10.72h17.32v43.71h-17.32v10.72Zm119.45,3.95l12.78-2.75c-.73-6.96-3.18-13.22-7.35-18.76-4.17-5.54-9-9.14-14.5-10.79h40.75v-10.72h-40.75c5.5-1.65,10.33-5.27,14.5-10.86,4.17-5.59,6.62-11.82,7.35-18.69l-12.78-2.89c-.46,9.71-3.37,17.37-8.73,22.95-5.36,5.59-12.35,8.75-20.96,9.49v10.72c8.61.73,15.6,3.87,20.96,9.42,5.36,5.55,8.27,13.17,8.73,22.89"/>
</svg>